<svg xmlns="http://www.w3.org/2000/svg" viewBox="0 0 1200 630" preserveAspectRatio="xMidYMid slice" role="img" aria-label="AI changing software delivery">
  <defs>
    <linearGradient id="bg" x1="0" y1="0" x2="0" y2="1">
      <stop offset="0%" stop-color="#1a2236"/>
      <stop offset="100%" stop-color="#0d1320"/>
    </linearGradient>
    <linearGradient id="ag" x1="0" y1="0" x2="1" y2="1">
      <stop offset="0%" stop-color="#e7c97a"/>
      <stop offset="100%" stop-color="#d63c2c"/>
    </linearGradient>
    <radialGradient id="glow" cx="50%" cy="50%" r="55%">
      <stop offset="0%" stop-color="#d4b157" stop-opacity="0.25"/>
      <stop offset="100%" stop-color="transparent"/>
    </radialGradient>
  </defs>
  <rect width="1200" height="630" fill="url(#bg)"/>
  <circle cx="600" cy="315" r="340" fill="url(#glow)"/>
  <g stroke="#d4b157" stroke-width="0.5" opacity="0.08" fill="none">
    <path d="M0,150 L1200,150 M0,300 L1200,300 M0,450 L1200,450 M200,0 L200,630 M400,0 L400,630 M600,0 L600,630 M800,0 L800,630 M1000,0 L1000,630"/>
  </g>
  <g stroke="url(#ag)" stroke-width="1.5" opacity="0.5" fill="none">
    <path d="M350 220 L500 315 M350 410 L500 315 M350 220 L500 180 M350 410 L500 450 M500 180 L650 220 M500 450 L650 410 M500 315 L650 315 M500 180 L650 315 M500 450 L650 315 M650 220 L800 180 M650 410 L800 450 M650 315 L800 315 M650 220 L800 315 M650 410 L800 315 M800 180 L950 315 M800 450 L950 315 M800 315 L950 315"/>
  </g>
  <g fill="url(#ag)">
    <circle cx="350" cy="220" r="9"/>
    <circle cx="350" cy="410" r="9"/>
    <circle cx="500" cy="180" r="10"/>
    <circle cx="500" cy="315" r="13"/>
    <circle cx="500" cy="450" r="10"/>
    <circle cx="650" cy="220" r="10"/>
    <circle cx="650" cy="315" r="16"/>
    <circle cx="650" cy="410" r="10"/>
    <circle cx="800" cy="180" r="10"/>
    <circle cx="800" cy="315" r="13"/>
    <circle cx="800" cy="450" r="10"/>
    <circle cx="950" cy="315" r="11"/>
  </g>
  <g fill="none" stroke="url(#ag)" opacity="0.45">
    <circle cx="500" cy="315" r="24"/>
    <circle cx="650" cy="315" r="30"/>
    <circle cx="800" cy="315" r="24"/>
  </g>
  <g transform="translate(60, 60)">
    <rect width="240" height="44" rx="22" fill="#e7c97a"/>
    <text x="120" y="29" font-family="system-ui, -apple-system, sans-serif" font-size="16" font-weight="700" fill="#0d1320" text-anchor="middle" letter-spacing="3">AI · SOFTWARE</text>
  </g>
  <circle cx="1140" cy="60" r="6" fill="#d63c2c" opacity="0.55"/>
  <circle cx="1110" cy="84" r="3" fill="#d4b157" opacity="0.55"/>
  <circle cx="60" cy="570" r="5" fill="#d4b157" opacity="0.55"/>
  <circle cx="88" cy="550" r="3" fill="#d63c2c" opacity="0.55"/>
</svg>
