<svg xmlns="http://www.w3.org/2000/svg" viewBox="0 0 1200 630" preserveAspectRatio="xMidYMid slice" role="img" aria-label="Digital business cards in Kenya">
  <defs>
    <linearGradient id="bg" x1="0" y1="0" x2="1" y2="1">
      <stop offset="0%" stop-color="#0d1320"/>
      <stop offset="100%" stop-color="#1a2236"/>
    </linearGradient>
    <linearGradient id="goldRed" x1="0" y1="0" x2="1" y2="1">
      <stop offset="0%" stop-color="#e7c97a"/>
      <stop offset="100%" stop-color="#d63c2c"/>
    </linearGradient>
    <radialGradient id="glow" cx="62%" cy="45%" r="56%">
      <stop offset="0%" stop-color="#e7c97a" stop-opacity="0.28"/>
      <stop offset="100%" stop-color="transparent"/>
    </radialGradient>
  </defs>
  <rect width="1200" height="630" fill="url(#bg)"/>
  <ellipse cx="720" cy="285" rx="520" ry="330" fill="url(#glow)"/>
  <g opacity="0.18" stroke="#e7c97a" stroke-width="1">
    <path d="M0 126H1200M0 252H1200M0 378H1200M0 504H1200"/>
    <path d="M240 0V630M480 0V630M720 0V630M960 0V630"/>
  </g>
  <g transform="translate(560 315)">
    <rect x="-235" y="-145" width="470" height="290" rx="32" fill="#0d1320" stroke="url(#goldRed)" stroke-width="4"/>
    <rect x="-205" y="-102" width="132" height="132" rx="20" fill="#e7c97a"/>
    <g fill="#0d1320">
      <rect x="-181" y="-78" width="28" height="28" rx="4"/>
      <rect x="-137" y="-78" width="28" height="28" rx="4"/>
      <rect x="-181" y="-34" width="28" height="28" rx="4"/>
      <rect x="-137" y="-34" width="28" height="28" rx="4"/>
      <rect x="-159" y="10" width="28" height="28" rx="4"/>
    </g>
    <text x="-45" y="-54" font-family="system-ui, -apple-system, sans-serif" font-size="30" font-weight="800" fill="#ffffff">BioBiz Card</text>
    <text x="-45" y="-12" font-family="system-ui, -apple-system, sans-serif" font-size="22" font-weight="600" fill="#e7c97a">Share. Save. Follow up.</text>
    <rect x="-45" y="34" width="245" height="12" rx="6" fill="#ffffff" opacity="0.35"/>
    <rect x="-45" y="62" width="175" height="12" rx="6" fill="#ffffff" opacity="0.22"/>
    <circle cx="202" cy="-92" r="18" fill="#d63c2c"/>
  </g>
  <g transform="translate(60 60)">
    <rect width="290" height="44" rx="22" fill="#e7c97a"/>
    <text x="145" y="29" font-family="system-ui, -apple-system, sans-serif" font-size="16" font-weight="800" fill="#0d1320" text-anchor="middle" letter-spacing="3">BIOBIZ CARD</text>
  </g>
</svg>
