<svg xmlns="http://www.w3.org/2000/svg" viewBox="0 0 1200 630" preserveAspectRatio="xMidYMid slice" role="img" aria-label="Brand-consistent creative at the speed of prompts">
  <defs>
    <linearGradient id="bg3" x1="0" y1="0" x2="1" y2="1">
      <stop offset="0%" stop-color="#0d1320"/>
      <stop offset="100%" stop-color="#1a2236"/>
    </linearGradient>
    <linearGradient id="ag3" x1="0" y1="1" x2="1" y2="0">
      <stop offset="0%" stop-color="#d63c2c"/>
      <stop offset="100%" stop-color="#e7c97a"/>
    </linearGradient>
    <radialGradient id="glow3" cx="70%" cy="25%" r="65%">
      <stop offset="0%" stop-color="#e7c97a" stop-opacity="0.22"/>
      <stop offset="100%" stop-color="transparent"/>
    </radialGradient>
  </defs>
  <rect width="1200" height="630" fill="url(#bg3)"/>
  <ellipse cx="800" cy="180" rx="520" ry="360" fill="url(#glow3)"/>
  <line x1="100" y1="510" x2="1100" y2="510" stroke="#d4b157" stroke-width="1" opacity="0.18"/>
  <g>
    <rect x="180" y="430" width="60" height="80" rx="8" fill="#d63c2c" opacity="0.7"/>
    <rect x="280" y="380" width="60" height="130" rx="8" fill="#d4b157" opacity="0.85"/>
    <rect x="380" y="340" width="60" height="170" rx="8" fill="#d63c2c"/>
    <rect x="480" y="290" width="60" height="220" rx="8" fill="#e7c97a"/>
    <rect x="580" y="220" width="60" height="290" rx="8" fill="#d63c2c"/>
    <rect x="680" y="160" width="60" height="350" rx="8" fill="#e7c97a"/>
    <rect x="780" y="100" width="60" height="410" rx="8" fill="url(#ag3)"/>
  </g>
  <polyline points="210,450 310,400 410,350 510,300 610,230 710,170 810,110" fill="none" stroke="url(#ag3)" stroke-width="3.5" stroke-linecap="round" stroke-linejoin="round"/>
  <g transform="translate(810, 110)">
    <circle r="16" fill="#0d1320" stroke="url(#ag3)" stroke-width="3.5"/>
    <path d="M -6 -2 L 5 -6 L 5 5 L -3 6 Z" fill="url(#ag3)"/>
  </g>
  <g fill="#e7c97a">
    <circle cx="930" cy="180" r="8" opacity="0.75"/>
    <circle cx="980" cy="220" r="6" opacity="0.7"/>
    <circle cx="1030" cy="170" r="7" opacity="0.7"/>
    <circle cx="1060" cy="260" r="6" opacity="0.65"/>
    <circle cx="970" cy="300" r="5" opacity="0.6"/>
    <circle cx="1020" cy="340" r="6" opacity="0.6"/>
  </g>
  <g stroke="#d4b157" stroke-width="2" opacity="0.4" fill="none" stroke-linecap="round">
    <line x1="900" y1="140" x2="850" y2="140"/>
    <line x1="920" y1="155" x2="870" y2="155"/>
    <line x1="910" y1="125" x2="870" y2="125"/>
  </g>
  <g transform="translate(60, 60)">
    <rect width="270" height="44" rx="22" fill="#d63c2c"/>
    <text x="135" y="29" font-family="system-ui, -apple-system, sans-serif" font-size="16" font-weight="700" fill="#ffffff" text-anchor="middle" letter-spacing="3">MARKETING · AI</text>
  </g>
</svg>
